<mxfile host="app.diagrams.net" modified="2021-02-16T02:05:31.868Z" agent="5.0 (Macintosh; Intel Mac OS X 11_1_0) AppleWebKit/537.36 (KHTML, like Gecko) Chrome/88.0.4324.146 Safari/537.36" etag="kh81c0owJe9wcPGWBnMw" version="14.3.2" type="github">
  <diagram id="kZrhna89fZPYIoWzwBHe" name="Page-1">
    <mxGraphModel dx="618" dy="346" grid="1" gridSize="10" guides="1" tooltips="1" connect="1" arrows="1" fold="1" page="1" pageScale="1" pageWidth="850" pageHeight="1100" math="0" shadow="0">
      <root>
        <mxCell id="0" />
        <mxCell id="1" parent="0" />
        <UserObject label="Artist" lucidchartObjectId="3S.bfwYNksfo" id="b7oU6uYI9nHCssRIsVyE-1">
          <mxCell style="html=1;overflow=block;blockSpacing=1;whiteSpace=wrap;;whiteSpace=wrap;fontSize=13;fontColor=#000000;spacing=9;strokeOpacity=100;strokeWidth=1.5;" parent="1" vertex="1">
            <mxGeometry x="180" y="135" width="120" height="60" as="geometry" />
          </mxCell>
        </UserObject>
        <UserObject label="aName" lucidchartObjectId="lT.bpAiI5P3L" id="b7oU6uYI9nHCssRIsVyE-2">
          <mxCell style="html=1;overflow=block;blockSpacing=1;whiteSpace=wrap;rounded=1;arcSize=50;whiteSpace=wrap;fontSize=13;fontColor=#000000;fontStyle=4;spacing=3.8;strokeOpacity=100;strokeWidth=1.5;" parent="1" vertex="1">
            <mxGeometry x="195" y="30" width="90" height="45" as="geometry" />
          </mxCell>
        </UserObject>
        <UserObject label="" lucidchartObjectId="YU.blzREtCKb" id="b7oU6uYI9nHCssRIsVyE-3">
          <mxCell style="html=1;jettySize=18;whiteSpace=wrap;fontSize=13;strokeWidth=1.5;rounded=1;arcSize=0;edgeStyle=orthogonalEdgeStyle;startArrow=none;;endArrow=none;;exitX=0.5;exitY=-0.012;exitPerimeter=0;entryX=0.5;entryY=1.017;entryPerimeter=0;" parent="1" source="b7oU6uYI9nHCssRIsVyE-1" target="b7oU6uYI9nHCssRIsVyE-2" edge="1">
            <mxGeometry width="100" height="100" relative="1" as="geometry">
              <Array as="points" />
            </mxGeometry>
          </mxCell>
        </UserObject>
        <UserObject label="bPlace" lucidchartObjectId="YV.bT5Kmt-XN" id="b7oU6uYI9nHCssRIsVyE-4">
          <mxCell style="html=1;overflow=block;blockSpacing=1;whiteSpace=wrap;rounded=1;arcSize=50;whiteSpace=wrap;fontSize=13;fontColor=#000000;spacing=3.8;strokeOpacity=100;strokeWidth=1.5;" parent="1" vertex="1">
            <mxGeometry x="15" y="120" width="90" height="45" as="geometry" />
          </mxCell>
        </UserObject>
        <UserObject label="" lucidchartObjectId="2V.bgfqAWqet" id="b7oU6uYI9nHCssRIsVyE-5">
          <mxCell style="html=1;jettySize=18;whiteSpace=wrap;fontSize=13;strokeOpacity=100;strokeWidth=1.5;rounded=1;arcSize=0;edgeStyle=orthogonalEdgeStyle;startArrow=none;;endArrow=none;;exitX=1.008;exitY=0.5;exitPerimeter=0;entryX=-0.006;entryY=0.5;entryPerimeter=0;" parent="1" source="b7oU6uYI9nHCssRIsVyE-4" target="b7oU6uYI9nHCssRIsVyE-1" edge="1">
            <mxGeometry width="100" height="100" relative="1" as="geometry">
              <Array as="points" />
            </mxGeometry>
          </mxCell>
        </UserObject>
        <UserObject label="age" lucidchartObjectId="oW.b93.MvxdX" id="b7oU6uYI9nHCssRIsVyE-6">
          <mxCell style="html=1;overflow=block;blockSpacing=1;whiteSpace=wrap;rounded=1;arcSize=50;whiteSpace=wrap;fontSize=13;fontColor=#000000;spacing=3.8;strokeOpacity=100;strokeWidth=1.5;" parent="1" vertex="1">
            <mxGeometry x="15" y="195" width="90" height="45" as="geometry" />
          </mxCell>
        </UserObject>
        <UserObject label="" lucidchartObjectId="AW.b2ZQgopbH" id="b7oU6uYI9nHCssRIsVyE-7">
          <mxCell style="html=1;jettySize=18;whiteSpace=wrap;fontSize=13;strokeOpacity=100;strokeWidth=1.5;rounded=1;arcSize=0;edgeStyle=orthogonalEdgeStyle;startArrow=none;;endArrow=none;;exitX=-0.006;exitY=0.75;exitPerimeter=0;entryX=1.008;entryY=0.5;entryPerimeter=0;" parent="1" source="b7oU6uYI9nHCssRIsVyE-1" target="b7oU6uYI9nHCssRIsVyE-6" edge="1">
            <mxGeometry width="100" height="100" relative="1" as="geometry">
              <Array as="points" />
            </mxGeometry>
          </mxCell>
        </UserObject>
        <UserObject label="Style" lucidchartObjectId="LW.bVKe.yrjn" id="b7oU6uYI9nHCssRIsVyE-8">
          <mxCell style="html=1;overflow=block;blockSpacing=1;whiteSpace=wrap;rounded=1;arcSize=50;whiteSpace=wrap;fontSize=13;fontColor=#000000;spacing=3.8;strokeOpacity=100;strokeWidth=1.5;" parent="1" vertex="1">
            <mxGeometry x="75" y="255" width="90" height="45" as="geometry" />
          </mxCell>
        </UserObject>
        <UserObject label="" lucidchartObjectId="OW.b8~CCgl.A" id="b7oU6uYI9nHCssRIsVyE-9">
          <mxCell style="html=1;jettySize=18;whiteSpace=wrap;fontSize=13;strokeOpacity=100;strokeWidth=1.5;rounded=1;arcSize=0;edgeStyle=orthogonalEdgeStyle;startArrow=none;;endArrow=none;;exitX=0.5;exitY=1.013;exitPerimeter=0;entryX=0.5;entryY=-0.017;entryPerimeter=0;" parent="1" source="b7oU6uYI9nHCssRIsVyE-1" target="b7oU6uYI9nHCssRIsVyE-8" edge="1">
            <mxGeometry width="100" height="100" relative="1" as="geometry">
              <Array as="points" />
            </mxGeometry>
          </mxCell>
        </UserObject>
        <UserObject label="Artwork" lucidchartObjectId="s2.bmmGCdRq3" id="b7oU6uYI9nHCssRIsVyE-10">
          <mxCell style="html=1;overflow=block;blockSpacing=1;whiteSpace=wrap;;whiteSpace=wrap;fontSize=13;fontColor=#000000;spacing=9;strokeOpacity=100;strokeWidth=1.5;" parent="1" vertex="1">
            <mxGeometry x="525" y="135" width="120" height="60" as="geometry" />
          </mxCell>
        </UserObject>
        <UserObject label="&lt;div style=&quot;display: flex; justify-content: center; text-align: center; align-items: baseline; font-size: 0; line-height: 1.25;margin-top: -2px;&quot;&gt;&lt;span&gt;&lt;span style=&quot;font-size:13px;color:#000000;text-decoration: underline;&quot;&gt;a&lt;/span&gt;&lt;span style=&quot;font-size:13px;color:#000000;&quot;&gt;N&lt;/span&gt;&lt;span style=&quot;font-size:13px;color:#000000;text-decoration: underline;&quot;&gt;a&lt;/span&gt;&lt;span style=&quot;font-size:13px;color:#000000;&quot;&gt;m&lt;/span&gt;&lt;span style=&quot;font-size:13px;color:#000000;text-decoration: underline;&quot;&gt;e&lt;/span&gt;&lt;/span&gt;&lt;/div&gt;" lucidchartObjectId="s2.bDyFeL3hO" id="b7oU6uYI9nHCssRIsVyE-11">
          <mxCell style="html=1;overflow=block;blockSpacing=1;whiteSpace=wrap;rounded=1;arcSize=50;whiteSpace=wrap;fontSize=13;spacing=3.8;strokeOpacity=100;strokeWidth=1.5;" parent="1" vertex="1">
            <mxGeometry x="540" y="15" width="90" height="45" as="geometry" />
          </mxCell>
        </UserObject>
        <UserObject label="" lucidchartObjectId="s2.b.wF7oge8" id="b7oU6uYI9nHCssRIsVyE-12">
          <mxCell style="html=1;jettySize=18;whiteSpace=wrap;fontSize=13;strokeOpacity=100;strokeWidth=1.5;rounded=1;arcSize=0;edgeStyle=orthogonalEdgeStyle;startArrow=none;;endArrow=none;;exitX=0.5;exitY=-0.012;exitPerimeter=0;entryX=0.5;entryY=1.017;entryPerimeter=0;" parent="1" source="b7oU6uYI9nHCssRIsVyE-10" target="b7oU6uYI9nHCssRIsVyE-11" edge="1">
            <mxGeometry width="100" height="100" relative="1" as="geometry">
              <Array as="points" />
            </mxGeometry>
          </mxCell>
        </UserObject>
        <UserObject label="year" lucidchartObjectId="s2.bCzqu-3S8" id="b7oU6uYI9nHCssRIsVyE-13">
          <mxCell style="html=1;overflow=block;blockSpacing=1;whiteSpace=wrap;rounded=1;arcSize=50;whiteSpace=wrap;fontSize=13;fontColor=#000000;spacing=3.8;strokeOpacity=100;strokeWidth=1.5;" parent="1" vertex="1">
            <mxGeometry x="690" y="30" width="90" height="45" as="geometry" />
          </mxCell>
        </UserObject>
        <UserObject label="" lucidchartObjectId="s2.bUpM5gOQ6" id="b7oU6uYI9nHCssRIsVyE-14">
          <mxCell style="html=1;jettySize=18;whiteSpace=wrap;fontSize=13;strokeOpacity=100;strokeWidth=1.5;rounded=1;arcSize=0;edgeStyle=orthogonalEdgeStyle;startArrow=none;;endArrow=none;;exitX=1.006;exitY=0.117;exitPerimeter=0;entryX=0.5;entryY=1.017;entryPerimeter=0;" parent="1" source="b7oU6uYI9nHCssRIsVyE-10" target="b7oU6uYI9nHCssRIsVyE-13" edge="1">
            <mxGeometry width="100" height="100" relative="1" as="geometry">
              <Array as="points" />
            </mxGeometry>
          </mxCell>
        </UserObject>
        <UserObject label="type" lucidchartObjectId="s2.bdAUEiWHj" id="b7oU6uYI9nHCssRIsVyE-15">
          <mxCell style="html=1;overflow=block;blockSpacing=1;whiteSpace=wrap;rounded=1;arcSize=50;whiteSpace=wrap;fontSize=13;fontColor=#000000;spacing=3.8;strokeOpacity=100;strokeWidth=1.5;" parent="1" vertex="1">
            <mxGeometry x="750" y="150" width="90" height="45" as="geometry" />
          </mxCell>
        </UserObject>
        <UserObject label="" lucidchartObjectId="s2.bkpscm~pd" id="b7oU6uYI9nHCssRIsVyE-16">
          <mxCell style="html=1;jettySize=18;whiteSpace=wrap;fontSize=13;strokeOpacity=100;strokeWidth=1.5;rounded=1;arcSize=0;edgeStyle=orthogonalEdgeStyle;startArrow=none;;endArrow=none;;exitX=1.006;exitY=0.5;exitPerimeter=0;entryX=0.004;entryY=0.333;entryPerimeter=0;" parent="1" source="b7oU6uYI9nHCssRIsVyE-10" target="b7oU6uYI9nHCssRIsVyE-15" edge="1">
            <mxGeometry width="100" height="100" relative="1" as="geometry">
              <Array as="points" />
            </mxGeometry>
          </mxCell>
        </UserObject>
        <UserObject label="price" lucidchartObjectId="s2.bKfEe8QUc" id="b7oU6uYI9nHCssRIsVyE-17">
          <mxCell style="html=1;overflow=block;blockSpacing=1;whiteSpace=wrap;rounded=1;arcSize=50;whiteSpace=wrap;fontSize=13;fontColor=#000000;spacing=3.8;strokeOpacity=100;strokeWidth=1.5;" parent="1" vertex="1">
            <mxGeometry x="750" y="210" width="90" height="45" as="geometry" />
          </mxCell>
        </UserObject>
        <UserObject label="" lucidchartObjectId="s2.bEBE1197X" id="b7oU6uYI9nHCssRIsVyE-18">
          <mxCell style="html=1;jettySize=18;whiteSpace=wrap;fontSize=13;strokeOpacity=100;strokeWidth=1.5;rounded=1;arcSize=0;edgeStyle=orthogonalEdgeStyle;startArrow=none;;endArrow=none;;exitX=0.767;exitY=1.013;exitPerimeter=0;entryX=0;entryY=0.638;entryPerimeter=0;" parent="1" source="b7oU6uYI9nHCssRIsVyE-10" target="b7oU6uYI9nHCssRIsVyE-17" edge="1">
            <mxGeometry width="100" height="100" relative="1" as="geometry">
              <Array as="points" />
            </mxGeometry>
          </mxCell>
        </UserObject>
        <UserObject label="title" lucidchartObjectId="s2.blq9hKbjk" id="b7oU6uYI9nHCssRIsVyE-19">
          <mxCell style="html=1;overflow=block;blockSpacing=1;whiteSpace=wrap;rounded=1;arcSize=50;whiteSpace=wrap;fontSize=13;fontColor=#000000;fontStyle=4;spacing=3.8;strokeOpacity=100;strokeWidth=1.5;" parent="1" vertex="1">
            <mxGeometry x="705" y="315" width="90" height="45" as="geometry" />
          </mxCell>
        </UserObject>
        <UserObject label="" lucidchartObjectId="s2.bHATlUg2j" id="b7oU6uYI9nHCssRIsVyE-20">
          <mxCell style="html=1;jettySize=18;whiteSpace=wrap;fontSize=13;strokeOpacity=100;strokeWidth=1.5;rounded=1;arcSize=0;edgeStyle=orthogonalEdgeStyle;startArrow=none;;endArrow=none;;exitX=0.5;exitY=-0.017;exitPerimeter=0;entryX=0.5;entryY=1.013;entryPerimeter=0;" parent="1" source="b7oU6uYI9nHCssRIsVyE-19" target="b7oU6uYI9nHCssRIsVyE-10" edge="1">
            <mxGeometry width="100" height="100" relative="1" as="geometry">
              <Array as="points" />
            </mxGeometry>
          </mxCell>
        </UserObject>
        <UserObject label="Group" lucidchartObjectId="sI~bYqYKhKAP" id="b7oU6uYI9nHCssRIsVyE-21">
          <mxCell style="html=1;overflow=block;blockSpacing=1;whiteSpace=wrap;;whiteSpace=wrap;fontSize=13;fontColor=#000000;spacing=9;strokeOpacity=100;strokeWidth=1.5;" parent="1" vertex="1">
            <mxGeometry x="525" y="405" width="120" height="60" as="geometry" />
          </mxCell>
        </UserObject>
        <UserObject label="gName" lucidchartObjectId="SI~b5hBQH2IL" id="b7oU6uYI9nHCssRIsVyE-22">
          <mxCell style="html=1;overflow=block;blockSpacing=1;whiteSpace=wrap;rounded=1;arcSize=50;whiteSpace=wrap;fontSize=13;fontColor=#000000;spacing=3.8;strokeOpacity=100;strokeWidth=1.5;" parent="1" vertex="1">
            <mxGeometry x="720" y="413" width="90" height="45" as="geometry" />
          </mxCell>
        </UserObject>
        <UserObject label="" lucidchartObjectId="cJ~br_n3jMkB" id="b7oU6uYI9nHCssRIsVyE-23">
          <mxCell style="html=1;jettySize=18;whiteSpace=wrap;fontSize=13;strokeOpacity=100;strokeWidth=1.5;rounded=1;arcSize=0;edgeStyle=orthogonalEdgeStyle;startArrow=none;;endArrow=none;;exitX=1.006;exitY=0.5;exitPerimeter=0;entryX=-0.008;entryY=0.5;entryPerimeter=0;" parent="1" source="b7oU6uYI9nHCssRIsVyE-21" target="b7oU6uYI9nHCssRIsVyE-22" edge="1">
            <mxGeometry width="100" height="100" relative="1" as="geometry">
              <Array as="points" />
            </mxGeometry>
          </mxCell>
        </UserObject>
        <UserObject label="Customer" lucidchartObjectId="IJ~bUURp8LjH" id="b7oU6uYI9nHCssRIsVyE-24">
          <mxCell style="html=1;overflow=block;blockSpacing=1;whiteSpace=wrap;;whiteSpace=wrap;fontSize=13;fontColor=#000000;spacing=9;strokeOpacity=100;strokeWidth=1.5;" parent="1" vertex="1">
            <mxGeometry x="195" y="405" width="120" height="60" as="geometry" />
          </mxCell>
        </UserObject>
        <UserObject label="cName" lucidchartObjectId="XK~beJsf6ZMP" id="b7oU6uYI9nHCssRIsVyE-25">
          <mxCell style="html=1;overflow=block;blockSpacing=1;whiteSpace=wrap;rounded=1;arcSize=50;whiteSpace=wrap;fontSize=13;fontColor=#000000;fontStyle=4;spacing=3.8;strokeOpacity=100;strokeWidth=1.5;" parent="1" vertex="1">
            <mxGeometry x="30" y="413" width="90" height="45" as="geometry" />
          </mxCell>
        </UserObject>
        <UserObject label="" lucidchartObjectId="-K~bQS0LTe~a" id="b7oU6uYI9nHCssRIsVyE-26">
          <mxCell style="html=1;jettySize=18;whiteSpace=wrap;fontSize=13;strokeOpacity=100;strokeWidth=1.5;rounded=1;arcSize=0;edgeStyle=orthogonalEdgeStyle;startArrow=none;;endArrow=none;;exitX=1.008;exitY=0.5;exitPerimeter=0;entryX=-0.006;entryY=0.5;entryPerimeter=0;" parent="1" source="b7oU6uYI9nHCssRIsVyE-25" target="b7oU6uYI9nHCssRIsVyE-24" edge="1">
            <mxGeometry width="100" height="100" relative="1" as="geometry">
              <Array as="points" />
            </mxGeometry>
          </mxCell>
        </UserObject>
        <UserObject label="addrfess" lucidchartObjectId="lL~b0oRutxeX" id="b7oU6uYI9nHCssRIsVyE-27">
          <mxCell style="html=1;overflow=block;blockSpacing=1;whiteSpace=wrap;rounded=1;arcSize=50;whiteSpace=wrap;fontSize=13;fontColor=#000000;spacing=3.8;strokeOpacity=100;strokeWidth=1.5;" parent="1" vertex="1">
            <mxGeometry x="120" y="510" width="90" height="45" as="geometry" />
          </mxCell>
        </UserObject>
        <UserObject label="Street" lucidchartObjectId="wL~bSwMW-zHS" id="b7oU6uYI9nHCssRIsVyE-28">
          <mxCell style="html=1;overflow=block;blockSpacing=1;whiteSpace=wrap;rounded=1;arcSize=50;whiteSpace=wrap;fontSize=13;fontColor=#000000;spacing=3.8;strokeOpacity=100;strokeWidth=1.5;" parent="1" vertex="1">
            <mxGeometry x="30" y="570" width="90" height="45" as="geometry" />
          </mxCell>
        </UserObject>
        <UserObject label="Number" lucidchartObjectId="xL~b.X5ysnXE" id="b7oU6uYI9nHCssRIsVyE-29">
          <mxCell style="html=1;overflow=block;blockSpacing=1;whiteSpace=wrap;rounded=1;arcSize=50;whiteSpace=wrap;fontSize=13;fontColor=#000000;spacing=3.8;strokeOpacity=100;strokeWidth=1.5;" parent="1" vertex="1">
            <mxGeometry x="45" y="643" width="90" height="45" as="geometry" />
          </mxCell>
        </UserObject>
        <UserObject label="City" lucidchartObjectId="xL~b7i7HFj4T" id="b7oU6uYI9nHCssRIsVyE-30">
          <mxCell style="html=1;overflow=block;blockSpacing=1;whiteSpace=wrap;rounded=1;arcSize=50;whiteSpace=wrap;fontSize=13;fontColor=#000000;spacing=3.8;strokeOpacity=100;strokeWidth=1.5;" parent="1" vertex="1">
            <mxGeometry x="75" y="720" width="90" height="45" as="geometry" />
          </mxCell>
        </UserObject>
        <UserObject label="State" lucidchartObjectId="yL~biFmtYu8I" id="b7oU6uYI9nHCssRIsVyE-31">
          <mxCell style="html=1;overflow=block;blockSpacing=1;whiteSpace=wrap;rounded=1;arcSize=50;whiteSpace=wrap;fontSize=13;fontColor=#000000;spacing=3.8;strokeOpacity=100;strokeWidth=1.5;" parent="1" vertex="1">
            <mxGeometry x="165" y="750" width="90" height="45" as="geometry" />
          </mxCell>
        </UserObject>
        <UserObject label="" lucidchartObjectId="2L~b7.84bMBJ" id="b7oU6uYI9nHCssRIsVyE-32">
          <mxCell style="html=1;jettySize=18;whiteSpace=wrap;fontSize=13;strokeOpacity=100;strokeWidth=1.5;rounded=1;arcSize=0;edgeStyle=orthogonalEdgeStyle;startArrow=none;;endArrow=none;;exitX=0.181;exitY=1.014;exitPerimeter=0;entryX=0.95;entryY=0.143;entryPerimeter=0;" parent="1" source="b7oU6uYI9nHCssRIsVyE-27" target="b7oU6uYI9nHCssRIsVyE-28" edge="1">
            <mxGeometry width="100" height="100" relative="1" as="geometry">
              <Array as="points" />
            </mxGeometry>
          </mxCell>
        </UserObject>
        <UserObject label="" lucidchartObjectId="4L~bjL26Yzww" id="b7oU6uYI9nHCssRIsVyE-33">
          <mxCell style="html=1;jettySize=18;whiteSpace=wrap;fontSize=13;strokeOpacity=100;strokeWidth=1.5;rounded=1;arcSize=0;edgeStyle=orthogonalEdgeStyle;startArrow=none;;endArrow=none;;exitX=0.4;exitY=1.017;exitPerimeter=0;entryX=0.96;entryY=0.17;entryPerimeter=0;" parent="1" source="b7oU6uYI9nHCssRIsVyE-27" target="b7oU6uYI9nHCssRIsVyE-29" edge="1">
            <mxGeometry width="100" height="100" relative="1" as="geometry">
              <Array as="points" />
            </mxGeometry>
          </mxCell>
        </UserObject>
        <UserObject label="" lucidchartObjectId="7L~bRt1U7~JN" id="b7oU6uYI9nHCssRIsVyE-34">
          <mxCell style="html=1;jettySize=18;whiteSpace=wrap;fontSize=13;strokeOpacity=100;strokeWidth=1.5;rounded=1;arcSize=0;edgeStyle=orthogonalEdgeStyle;startArrow=none;;endArrow=none;;exitX=0.689;exitY=1.017;exitPerimeter=0;entryX=0.947;entryY=0.135;entryPerimeter=0;" parent="1" source="b7oU6uYI9nHCssRIsVyE-27" target="b7oU6uYI9nHCssRIsVyE-30" edge="1">
            <mxGeometry width="100" height="100" relative="1" as="geometry">
              <Array as="points" />
            </mxGeometry>
          </mxCell>
        </UserObject>
        <UserObject label="" lucidchartObjectId="9L~bpwZUp17_" id="b7oU6uYI9nHCssRIsVyE-35">
          <mxCell style="html=1;jettySize=18;whiteSpace=wrap;fontSize=13;strokeOpacity=100;strokeWidth=1.5;rounded=1;arcSize=0;edgeStyle=orthogonalEdgeStyle;startArrow=none;;endArrow=none;;exitX=0.869;exitY=0.988;exitPerimeter=0;entryX=0.369;entryY=-0.017;entryPerimeter=0;" parent="1" source="b7oU6uYI9nHCssRIsVyE-27" target="b7oU6uYI9nHCssRIsVyE-31" edge="1">
            <mxGeometry width="100" height="100" relative="1" as="geometry">
              <Array as="points" />
            </mxGeometry>
          </mxCell>
        </UserObject>
        <UserObject label="zip" lucidchartObjectId="jM~bebLtTMvT" id="b7oU6uYI9nHCssRIsVyE-36">
          <mxCell style="html=1;overflow=block;blockSpacing=1;whiteSpace=wrap;rounded=1;arcSize=50;whiteSpace=wrap;fontSize=13;fontColor=#000000;spacing=3.8;strokeOpacity=100;strokeWidth=1.5;" parent="1" vertex="1">
            <mxGeometry x="240" y="705" width="90" height="45" as="geometry" />
          </mxCell>
        </UserObject>
        <UserObject label="" lucidchartObjectId="JM~b.Iuz9U.6" id="b7oU6uYI9nHCssRIsVyE-37">
          <mxCell style="html=1;jettySize=18;whiteSpace=wrap;fontSize=13;strokeOpacity=100;strokeWidth=1.5;rounded=1;arcSize=0;edgeStyle=orthogonalEdgeStyle;startArrow=none;;endArrow=none;;exitX=0.051;exitY=0.139;exitPerimeter=0;entryX=0.898;entryY=0.955;entryPerimeter=0;" parent="1" source="b7oU6uYI9nHCssRIsVyE-36" target="b7oU6uYI9nHCssRIsVyE-27" edge="1">
            <mxGeometry width="100" height="100" relative="1" as="geometry">
              <Array as="points" />
            </mxGeometry>
          </mxCell>
        </UserObject>
        <UserObject label="spent" lucidchartObjectId="NM~bnHMDCuxq" id="b7oU6uYI9nHCssRIsVyE-38">
          <mxCell style="html=1;overflow=block;blockSpacing=1;whiteSpace=wrap;rounded=1;arcSize=50;whiteSpace=wrap;fontSize=13;fontColor=#000000;spacing=3.8;strokeOpacity=100;strokeWidth=1.5;" parent="1" vertex="1">
            <mxGeometry x="255" y="540" width="90" height="45" as="geometry" />
          </mxCell>
        </UserObject>
        <UserObject label="" lucidchartObjectId="dN~bwB3AOgA_" id="b7oU6uYI9nHCssRIsVyE-39">
          <mxCell style="html=1;jettySize=18;whiteSpace=wrap;fontSize=13;strokeOpacity=100;strokeWidth=1.5;rounded=1;arcSize=0;edgeStyle=orthogonalEdgeStyle;startArrow=none;;endArrow=none;;exitX=-0.006;exitY=0.8;exitPerimeter=0;entryX=0.5;entryY=-0.017;entryPerimeter=0;" parent="1" source="b7oU6uYI9nHCssRIsVyE-24" target="b7oU6uYI9nHCssRIsVyE-27" edge="1">
            <mxGeometry width="100" height="100" relative="1" as="geometry">
              <Array as="points" />
            </mxGeometry>
          </mxCell>
        </UserObject>
        <UserObject label="" lucidchartObjectId="fN~bdawr7ZVO" id="b7oU6uYI9nHCssRIsVyE-40">
          <mxCell style="html=1;jettySize=18;whiteSpace=wrap;fontSize=13;strokeOpacity=100;strokeWidth=1.5;rounded=1;arcSize=0;edgeStyle=orthogonalEdgeStyle;startArrow=none;;endArrow=none;;exitX=0.5;exitY=1.013;exitPerimeter=0;entryX=0.5;entryY=-0.017;entryPerimeter=0;" parent="1" source="b7oU6uYI9nHCssRIsVyE-24" target="b7oU6uYI9nHCssRIsVyE-38" edge="1">
            <mxGeometry width="100" height="100" relative="1" as="geometry">
              <Array as="points" />
            </mxGeometry>
          </mxCell>
        </UserObject>
        <UserObject label="Liked By" lucidchartObjectId="BQ~bRk5k3rsi" id="b7oU6uYI9nHCssRIsVyE-41">
          <mxCell style="html=1;overflow=block;blockSpacing=1;whiteSpace=wrap;rhombus;whiteSpace=wrap;fontSize=13;fontColor=#000000;spacing=3.8;strokeOpacity=100;strokeWidth=1.5;" parent="1" vertex="1">
            <mxGeometry x="360" y="405" width="90" height="60" as="geometry" />
          </mxCell>
        </UserObject>
        <UserObject label="" lucidchartObjectId="KQ~biINqzo6J" id="b7oU6uYI9nHCssRIsVyE-42">
          <mxCell style="html=1;jettySize=18;whiteSpace=wrap;fontSize=13;strokeOpacity=100;strokeWidth=1.5;rounded=1;arcSize=0;edgeStyle=orthogonalEdgeStyle;startArrow=none;;endArrow=none;;exitX=1.006;exitY=0.5;exitPerimeter=0;entryX=-0.015;entryY=0.5;entryPerimeter=0;" parent="1" source="b7oU6uYI9nHCssRIsVyE-24" target="b7oU6uYI9nHCssRIsVyE-41" edge="1">
            <mxGeometry width="100" height="100" relative="1" as="geometry">
              <Array as="points" />
            </mxGeometry>
          </mxCell>
        </UserObject>
        <UserObject label="" lucidchartObjectId="MQ~bS9oOz65c" id="b7oU6uYI9nHCssRIsVyE-43">
          <mxCell style="html=1;jettySize=18;whiteSpace=wrap;fontSize=13;strokeOpacity=100;strokeWidth=1.5;rounded=1;arcSize=0;edgeStyle=orthogonalEdgeStyle;startArrow=none;;endArrow=none;;exitX=1.015;exitY=0.5;exitPerimeter=0;entryX=-0.006;entryY=0.5;entryPerimeter=0;" parent="1" source="b7oU6uYI9nHCssRIsVyE-41" target="b7oU6uYI9nHCssRIsVyE-21" edge="1">
            <mxGeometry width="100" height="100" relative="1" as="geometry">
              <Array as="points" />
            </mxGeometry>
          </mxCell>
        </UserObject>
        <UserObject label="0..N" lucidchartObjectId="0T~bY0VZQDx~" id="b7oU6uYI9nHCssRIsVyE-44">
          <mxCell style="html=1;overflow=block;blockSpacing=1;whiteSpace=wrap;;whiteSpace=wrap;fontSize=13;fontColor=#000000;spacing=3.8;strokeOpacity=0;fillOpacity=0;fillColor=#ffffff;strokeWidth=1.5;" parent="1" vertex="1">
            <mxGeometry x="315" y="405" width="60" height="45" as="geometry" />
          </mxCell>
        </UserObject>
        <UserObject label="0..M" lucidchartObjectId="-T~biGt4v2g0" id="b7oU6uYI9nHCssRIsVyE-45">
          <mxCell style="html=1;overflow=block;blockSpacing=1;whiteSpace=wrap;;whiteSpace=wrap;fontSize=13;fontColor=#000000;spacing=3.8;strokeOpacity=0;fillOpacity=0;fillColor=#ffffff;strokeWidth=1.5;" parent="1" vertex="1">
            <mxGeometry x="405" y="405" width="180" height="45" as="geometry" />
          </mxCell>
        </UserObject>
        <UserObject label="Apart of" lucidchartObjectId="-3~biRg263Y." id="b7oU6uYI9nHCssRIsVyE-46">
          <mxCell style="html=1;overflow=block;blockSpacing=1;whiteSpace=wrap;rhombus;whiteSpace=wrap;fontSize=13;fontColor=#000000;spacing=3.8;strokeOpacity=100;strokeWidth=1.5;" parent="1" vertex="1">
            <mxGeometry x="510" y="270" width="90" height="75" as="geometry" />
          </mxCell>
        </UserObject>
        <UserObject label="" lucidchartObjectId="x4~bwPs7XX1v" id="b7oU6uYI9nHCssRIsVyE-47">
          <mxCell style="html=1;jettySize=18;whiteSpace=wrap;fontSize=13;strokeOpacity=100;strokeWidth=1.5;rounded=1;arcSize=0;edgeStyle=orthogonalEdgeStyle;startArrow=none;;endArrow=none;;exitX=0.5;exitY=-0.013;exitPerimeter=0;entryX=0.25;entryY=1.013;entryPerimeter=0;" parent="1" source="b7oU6uYI9nHCssRIsVyE-46" target="b7oU6uYI9nHCssRIsVyE-10" edge="1">
            <mxGeometry width="100" height="100" relative="1" as="geometry">
              <Array as="points" />
            </mxGeometry>
          </mxCell>
        </UserObject>
        <UserObject label="" lucidchartObjectId="z4~bdo_0rkfk" id="b7oU6uYI9nHCssRIsVyE-48">
          <mxCell style="html=1;jettySize=18;whiteSpace=wrap;fontSize=13;strokeOpacity=100;strokeWidth=1.5;rounded=1;arcSize=0;edgeStyle=orthogonalEdgeStyle;startArrow=none;;endArrow=none;;exitX=0.5;exitY=1.013;exitPerimeter=0;entryX=0.25;entryY=-0.012;entryPerimeter=0;" parent="1" source="b7oU6uYI9nHCssRIsVyE-46" target="b7oU6uYI9nHCssRIsVyE-21" edge="1">
            <mxGeometry width="100" height="100" relative="1" as="geometry">
              <Array as="points" />
            </mxGeometry>
          </mxCell>
        </UserObject>
        <UserObject label="Painted by" lucidchartObjectId="07~bUfZtLqYr" id="b7oU6uYI9nHCssRIsVyE-49">
          <mxCell style="html=1;overflow=block;blockSpacing=1;whiteSpace=wrap;rhombus;whiteSpace=wrap;fontSize=13;fontColor=#000000;spacing=3.8;strokeOpacity=100;strokeWidth=1.5;" parent="1" vertex="1">
            <mxGeometry x="350" y="135" width="101" height="60" as="geometry" />
          </mxCell>
        </UserObject>
        <UserObject label="" lucidchartObjectId="t9~bXrZI8YqA" id="b7oU6uYI9nHCssRIsVyE-50">
          <mxCell style="html=1;jettySize=18;whiteSpace=wrap;fontSize=13;strokeOpacity=100;strokeWidth=1.5;rounded=1;arcSize=0;edgeStyle=orthogonalEdgeStyle;startArrow=none;;endArrow=none;;exitX=1.015;exitY=0.5;exitPerimeter=0;entryX=-0.006;entryY=0.5;entryPerimeter=0;" parent="1" source="b7oU6uYI9nHCssRIsVyE-49" target="b7oU6uYI9nHCssRIsVyE-10" edge="1">
            <mxGeometry width="100" height="100" relative="1" as="geometry">
              <Array as="points" />
            </mxGeometry>
          </mxCell>
        </UserObject>
        <UserObject label="0..N" lucidchartObjectId="w_~bUIf..-24" id="b7oU6uYI9nHCssRIsVyE-51">
          <mxCell style="html=1;overflow=block;blockSpacing=1;whiteSpace=wrap;;whiteSpace=wrap;fontSize=13;fontColor=#000000;spacing=3.8;strokeOpacity=0;fillOpacity=0;fillColor=#ffffff;strokeWidth=1.5;" parent="1" vertex="1">
            <mxGeometry x="270" y="225" width="30" height="30" as="geometry" />
          </mxCell>
        </UserObject>
        <UserObject label="" lucidchartObjectId="b.~bD~xQ9x3l" id="b7oU6uYI9nHCssRIsVyE-52">
          <mxCell style="html=1;jettySize=18;whiteSpace=wrap;fontSize=13;strokeOpacity=100;strokeWidth=1.5;rounded=1;arcSize=0;edgeStyle=orthogonalEdgeStyle;startArrow=none;;endArrow=block;endFill=1;;exitX=-0.015;exitY=0.5;exitPerimeter=0;entryX=1.006;entryY=0.5;entryPerimeter=0;" parent="1" source="b7oU6uYI9nHCssRIsVyE-49" target="b7oU6uYI9nHCssRIsVyE-1" edge="1">
            <mxGeometry width="100" height="100" relative="1" as="geometry">
              <Array as="points" />
            </mxGeometry>
          </mxCell>
        </UserObject>
        <UserObject label="1..N" lucidchartObjectId="Q.~bFy0V3lJk" id="b7oU6uYI9nHCssRIsVyE-53">
          <mxCell style="html=1;overflow=block;blockSpacing=1;whiteSpace=wrap;;whiteSpace=wrap;fontSize=13;fontColor=#000000;spacing=3.8;strokeOpacity=0;fillOpacity=0;fillColor=#ffffff;strokeWidth=1.5;" parent="1" vertex="1">
            <mxGeometry x="480" y="146" width="30" height="23" as="geometry" />
          </mxCell>
        </UserObject>
        <UserObject label="1..M" lucidchartObjectId="n~~b2CYC_hbc" id="b7oU6uYI9nHCssRIsVyE-54">
          <mxCell style="html=1;overflow=block;blockSpacing=1;whiteSpace=wrap;;whiteSpace=wrap;fontSize=13;fontColor=#000000;spacing=3.8;strokeOpacity=0;fillOpacity=0;fillColor=#ffffff;strokeWidth=1.5;" parent="1" vertex="1">
            <mxGeometry x="555" y="375" width="30" height="15" as="geometry" />
          </mxCell>
        </UserObject>
        <UserObject label="0..N" lucidchartObjectId="w~~b28IdPWah" id="b7oU6uYI9nHCssRIsVyE-55">
          <mxCell style="html=1;overflow=block;blockSpacing=1;whiteSpace=wrap;;whiteSpace=wrap;fontSize=13;fontColor=#000000;spacing=3.8;strokeOpacity=0;fillOpacity=0;fillColor=#ffffff;strokeWidth=1.5;" parent="1" vertex="1">
            <mxGeometry x="525" y="210" width="30" height="15" as="geometry" />
          </mxCell>
        </UserObject>
        <UserObject label="Liked By" lucidchartObjectId="Azccq7XISyIf" id="b7oU6uYI9nHCssRIsVyE-56">
          <mxCell style="html=1;overflow=block;blockSpacing=1;whiteSpace=wrap;rhombus;whiteSpace=wrap;fontSize=13;fontColor=#000000;spacing=3.8;strokeOpacity=100;strokeWidth=1.5;" parent="1" vertex="1">
            <mxGeometry x="210" y="278" width="90" height="60" as="geometry" />
          </mxCell>
        </UserObject>
        <UserObject label="" lucidchartObjectId="Uzcclj5mxvp1" id="b7oU6uYI9nHCssRIsVyE-57">
          <mxCell style="html=1;jettySize=18;whiteSpace=wrap;fontSize=13;strokeOpacity=100;strokeWidth=1.5;rounded=1;arcSize=0;edgeStyle=orthogonalEdgeStyle;startArrow=none;;endArrow=none;;exitX=0.5;exitY=-0.015;exitPerimeter=0;entryX=0.625;entryY=1.013;entryPerimeter=0;" parent="1" source="b7oU6uYI9nHCssRIsVyE-56" target="b7oU6uYI9nHCssRIsVyE-1" edge="1">
            <mxGeometry width="100" height="100" relative="1" as="geometry">
              <Array as="points" />
            </mxGeometry>
          </mxCell>
        </UserObject>
        <UserObject label="" lucidchartObjectId="Wzccd2GZQcGR" id="b7oU6uYI9nHCssRIsVyE-58">
          <mxCell style="html=1;jettySize=18;whiteSpace=wrap;fontSize=13;strokeOpacity=100;strokeWidth=1.5;rounded=1;arcSize=0;edgeStyle=orthogonalEdgeStyle;startArrow=none;;endArrow=none;;exitX=0.5;exitY=-0.012;exitPerimeter=0;entryX=0.5;entryY=1.015;entryPerimeter=0;" parent="1" source="b7oU6uYI9nHCssRIsVyE-24" target="b7oU6uYI9nHCssRIsVyE-56" edge="1">
            <mxGeometry width="100" height="100" relative="1" as="geometry">
              <Array as="points" />
            </mxGeometry>
          </mxCell>
        </UserObject>
        <UserObject label="0..M" lucidchartObjectId=".AccMCZ5bc7k" id="b7oU6uYI9nHCssRIsVyE-59">
          <mxCell style="html=1;overflow=block;blockSpacing=1;whiteSpace=wrap;;whiteSpace=wrap;fontSize=13;fontColor=#000000;spacing=3.8;strokeOpacity=0;fillOpacity=0;fillColor=#ffffff;strokeWidth=1.5;" parent="1" vertex="1">
            <mxGeometry x="270" y="345" width="30" height="23" as="geometry" />
          </mxCell>
        </UserObject>
        <UserObject label="0..M" lucidchartObjectId="kDcctwHt5s5v" id="b7oU6uYI9nHCssRIsVyE-60">
          <mxCell style="html=1;overflow=block;blockSpacing=1;whiteSpace=wrap;;whiteSpace=wrap;fontSize=13;fontColor=#000000;spacing=3.8;strokeOpacity=0;fillOpacity=0;fillColor=#ffffff;strokeWidth=1.5;" parent="1" vertex="1">
            <mxGeometry x="300" y="135" width="60" height="45" as="geometry" />
          </mxCell>
        </UserObject>
        <UserObject label="Artwork" lucidchartObjectId="s2.bmmGCdRq3" id="YjalN2_wfhA9mKYS-AyG-2">
          <mxCell style="html=1;overflow=block;blockSpacing=1;whiteSpace=wrap;;whiteSpace=wrap;fontSize=13;fontColor=#000000;spacing=9;strokeOpacity=100;strokeWidth=1.5;" vertex="1" parent="1">
            <mxGeometry x="537.5" y="142.5" width="95" height="45" as="geometry" />
          </mxCell>
        </UserObject>
        <mxCell id="YjalN2_wfhA9mKYS-AyG-7" style="rounded=0;orthogonalLoop=1;jettySize=auto;html=1;exitX=0.5;exitY=0;exitDx=0;exitDy=0;entryX=0;entryY=1;entryDx=0;entryDy=0;startArrow=none;startFill=0;endArrow=none;endFill=0;" edge="1" parent="1" source="YjalN2_wfhA9mKYS-AyG-3" target="b7oU6uYI9nHCssRIsVyE-10">
          <mxGeometry relative="1" as="geometry" />
        </mxCell>
        <UserObject label="Bought By" lucidchartObjectId="07~bUfZtLqYr" id="YjalN2_wfhA9mKYS-AyG-3">
          <mxCell style="html=1;overflow=block;blockSpacing=1;whiteSpace=wrap;rhombus;whiteSpace=wrap;fontSize=13;fontColor=#000000;spacing=3.8;strokeOpacity=100;strokeWidth=1.5;" vertex="1" parent="1">
            <mxGeometry x="360" y="270" width="101" height="60" as="geometry" />
          </mxCell>
        </UserObject>
        <mxCell id="YjalN2_wfhA9mKYS-AyG-6" value="" style="endArrow=none;html=1;exitX=0.95;exitY=0;exitDx=0;exitDy=0;exitPerimeter=0;entryX=0.5;entryY=1;entryDx=0;entryDy=0;startArrow=classic;startFill=1;" edge="1" parent="1" source="b7oU6uYI9nHCssRIsVyE-24" target="YjalN2_wfhA9mKYS-AyG-3">
          <mxGeometry width="50" height="50" relative="1" as="geometry">
            <mxPoint x="400" y="390" as="sourcePoint" />
            <mxPoint x="450" y="340" as="targetPoint" />
          </mxGeometry>
        </mxCell>
        <UserObject label="1..1" lucidchartObjectId=".AccMCZ5bc7k" id="YjalN2_wfhA9mKYS-AyG-8">
          <mxCell style="html=1;overflow=block;blockSpacing=1;whiteSpace=wrap;;whiteSpace=wrap;fontSize=13;fontColor=#000000;spacing=3.8;strokeOpacity=0;fillOpacity=0;fillColor=#ffffff;strokeWidth=1.5;" vertex="1" parent="1">
            <mxGeometry x="370" y="360" width="30" height="23" as="geometry" />
          </mxCell>
        </UserObject>
        <UserObject label="0..M" lucidchartObjectId=".AccMCZ5bc7k" id="YjalN2_wfhA9mKYS-AyG-9">
          <mxCell style="html=1;overflow=block;blockSpacing=1;whiteSpace=wrap;;whiteSpace=wrap;fontSize=13;fontColor=#000000;spacing=3.8;strokeOpacity=0;fillOpacity=0;fillColor=#ffffff;strokeWidth=1.5;" vertex="1" parent="1">
            <mxGeometry x="440" y="210" width="30" height="23" as="geometry" />
          </mxCell>
        </UserObject>
      </root>
    </mxGraphModel>
  </diagram>
</mxfile>
